<svg version="1.2" xmlns="http://www.w3.org/2000/svg" viewBox="0 0 370 82" width="370" height="82">
	<title>logo_black_fill-svg</title>
	<style>
		.s0 { fill: #0f1021 } 
	</style>
	<g id="SvgjsG1668">
		<path id="Layer" fill-rule="evenodd" class="s0" d="m92.1 38.9c0 5.6-3.5 10.5-8.6 12.5v12.2c0 2.2-1.8 3.9-4 3.9h-25.6v11.6c0 1.1-0.9 1.9-2 1.9-1 0-1.9-0.8-1.9-1.9v-11.6h-7.9v11.6c0 1.1-0.9 1.9-1.9 1.9-1.1 0-2-0.8-2-1.9v-11.6h-25.6c-2.2 0-4-1.7-4-3.9v-12.2c-5.1-2-8.6-6.9-8.6-12.5 0-5.7 3.5-10.6 8.6-12.5v-10.9c0-2.2 1.8-4 4-4h20.2c0.9-6.5 6.5-11.5 13.3-11.5 6.7 0 12.3 5 13.2 11.5h20.2c2.2 0 4 1.8 4 4v10.9c5.1 1.9 8.6 6.8 8.6 12.5zm-72.1 1.5q0.5 0.3 1.1 0.3c0.6 0 1.2-0.2 1.5-0.7l4.3-5.7 4.2 5.7c0.4 0.5 0.9 0.7 1.5 0.7q0.6 0 1.2-0.3c0.8-0.7 1-1.9 0.4-2.7l-4.9-6.6 4.9-6.5c0.6-0.8 0.4-2-0.4-2.7-0.9-0.6-2.1-0.4-2.7 0.4l-4.2 5.6-4.3-5.6c-0.6-0.8-1.8-1-2.6-0.4-0.9 0.7-1.1 1.9-0.4 2.7l4.9 6.5-4.9 6.6c-0.7 0.8-0.5 2 0.4 2.7zm45.2 11.9c0-1-0.6-1.8-1.6-1.9l-34.5-5.8q-0.2 0-0.3 0c-4.2 0-7.7 3.4-7.7 7.7 0 4.2 3.5 7.6 7.7 7.6q0.1 0 0.3 0l34.5-5.8c1-0.1 1.6-0.9 1.6-1.8zm-1.4-21.2l4.9-6.5c0.6-0.8 0.5-2-0.4-2.7-0.8-0.6-2-0.4-2.7 0.4l-4.2 5.6-4.2-5.6c-0.7-0.8-1.9-1-2.7-0.4-0.8 0.7-1 1.9-0.4 2.7l4.9 6.5-4.9 6.6c-0.6 0.8-0.4 2 0.4 2.7q0.5 0.3 1.1 0.3c0.6 0 1.2-0.2 1.6-0.7l4.2-5.7 4.2 5.7c0.4 0.5 1 0.7 1.6 0.7q0.6 0 1.1-0.3c0.9-0.7 1-1.9 0.4-2.7z"/>
	</g>
	<g id="SvgjsG1669">
	</g>
</svg>