<svg version="1.2" xmlns="http://www.w3.org/2000/svg" viewBox="0 0 370 82" width="370" height="82">
	<title>test2-svg</title>
	<style>
		.s0 { fill: #393939 } 
		.s1 { fill: #060606 } 
	</style>
	<g id="SvgjsG2730">
		<g id="Layer">
			<g id="Layer">
				<g id="Layer">
					<path id="Layer" fill-rule="evenodd" class="s0" d="m79.5 67.5h-66.9c-2.2 0-4-1.7-4-3.9v-48.1c0-2.2 1.8-4 4-4h66.9c2.2 0 4 1.8 4 4v48.1c0 2.2-1.8 3.9-4 3.9zm-66.9-52.1l-0.1 48.2 67 0.1 0.1-48.2c0-0.1 0-0.1-0.1-0.1z"/>
				</g>
				<g id="Layer">
					<path id="Layer" class="s0" d="m51.9 81c-1 0-1.9-0.8-1.9-1.9v-13.5c0-1 0.9-1.9 1.9-1.9 1.1 0 2 0.9 2 1.9v13.5c0 1.1-0.9 1.9-2 1.9z"/>
				</g>
				<g id="Layer">
					<path id="Layer" class="s0" d="m40.2 81c-1.1 0-2-0.8-2-1.9v-13.5c0-1 0.9-1.9 2-1.9 1 0 1.9 0.9 1.9 1.9v13.5c0 1.1-0.9 1.9-1.9 1.9z"/>
				</g>
				<g id="Layer">
					<path id="Layer" fill-rule="evenodd" class="s0" d="m28.8 59.9c-4.2 0-7.7-3.4-7.7-7.6 0-4.3 3.5-7.7 7.7-7.7q0.1 0 0.3 0l34.5 5.8c1 0.1 1.6 0.9 1.6 1.9 0 0.9-0.6 1.7-1.6 1.8l-34.5 5.8q-0.2 0-0.3 0zm-0.2-11.5c-2 0.1-3.7 1.8-3.7 3.9 0 2 1.7 3.7 3.7 3.8l23.1-3.8z"/>
				</g>
				<g id="Layer">
					<path id="Layer" class="s0" d="m10.6 51.9q-0.3 0-0.5-0.1c-6-1.5-10.1-6.8-10.1-12.9 0-6.2 4.1-11.5 10.1-13 1-0.3 2.1 0.3 2.3 1.4 0.3 1-0.3 2-1.4 2.3-4.2 1.1-7.2 4.9-7.2 9.3 0 4.3 3 8.2 7.2 9.2 1.1 0.3 1.7 1.3 1.4 2.4-0.2 0.8-1 1.4-1.8 1.4z"/>
				</g>
				<g id="Layer">
					<path id="Layer" class="s0" d="m81.6 51.9c-0.9 0-1.7-0.5-1.9-1.4-0.3-1 0.3-2.1 1.4-2.3 4.2-1.1 7.2-5 7.2-9.3 0-4.4-3-8.2-7.2-9.3-1-0.3-1.7-1.3-1.4-2.3 0.3-1.1 1.3-1.7 2.3-1.4 6 1.5 10.1 6.8 10.1 13 0 6.1-4.1 11.4-10.1 13q-0.2 0-0.4 0z"/>
				</g>
				<g id="Layer">
					<path id="Layer" class="s0" d="m57.6 15.4c-1.1 0-2-0.9-2-2 0-5.3-4.3-9.6-9.5-9.6-5.3 0-9.6 4.3-9.6 9.6 0 1.1-0.9 2-2 2-1 0-1.9-0.9-1.9-2 0-7.4 6-13.4 13.5-13.4 7.4 0 13.4 6 13.4 13.4 0 1.1-0.9 2-1.9 2z"/>
				</g>
			</g>
			<g id="Layer">
				<path id="Layer" class="s0" d="m21.1 40.7q-0.6 0-1.1-0.3c-0.9-0.7-1.1-1.9-0.4-2.7l11.5-15.4c0.6-0.8 1.8-1 2.7-0.4 0.8 0.7 1 1.9 0.4 2.7l-11.6 15.4c-0.3 0.5-0.9 0.7-1.5 0.7z"/>
			</g>
			<g id="Layer">
				<path id="Layer" class="s0" d="m32.6 40.7c-0.6 0-1.1-0.2-1.5-0.7l-11.5-15.4c-0.7-0.8-0.5-2 0.4-2.7 0.8-0.6 2-0.4 2.6 0.4l11.6 15.4c0.6 0.8 0.4 2-0.4 2.7q-0.6 0.3-1.2 0.3z"/>
			</g>
			<g id="Layer">
				<path id="Layer" class="s0" d="m55.6 40.7q-0.6 0-1.1-0.3c-0.9-0.7-1-1.9-0.4-2.7l11.5-15.4c0.7-0.8 1.9-1 2.7-0.4 0.9 0.7 1 1.9 0.4 2.7l-11.5 15.4c-0.4 0.5-1 0.7-1.6 0.7z"/>
			</g>
			<g id="Layer">
				<path id="Layer" class="s0" d="m67.2 40.7c-0.6 0-1.2-0.2-1.6-0.7l-11.5-15.4c-0.6-0.8-0.5-2 0.4-2.7 0.8-0.6 2-0.4 2.7 0.4l11.5 15.4c0.6 0.8 0.5 2-0.4 2.7q-0.5 0.3-1.1 0.3z"/>
			</g>
		</g>
	</g>
	<g id="SvgjsG2731">
		<path id="Layer" fill-rule="evenodd" class="s1" d="m112 24.6q0-0.5 0.3-0.9 0.3-0.3 1-0.3h9.4q0.4 0 0.8 0.2 0.5 0.2 0.8 0.6 3.6 6 7.2 11.7 3.6 5.7 7.3 11.6v-23q0.1-0.6 0.5-0.9 0.3-0.2 0.8-0.2h8.2q0.6 0 1 0.3 0.4 0.3 0.4 0.9v40.4q0 0.6-0.3 0.9-0.4 0.2-1 0.2h-9.2q-0.3 0-0.6-0.2-0.3-0.3-0.6-0.7-3.9-6.3-7.6-12.5-3.8-6.2-7.6-12.6v24.8q0 0.6-0.3 0.9-0.3 0.3-1 0.3h-8.2q-0.7 0-1-0.3-0.3-0.4-0.3-0.9zm45.9 7.2q0-0.9 0.5-1.6 0.5-0.7 1.6-0.7h6.6q0.4 0 0.8 0.2 0.4 0.1 0.7 0.5 0.4 0.3 0.6 0.7 0.3 0.4 0.3 0.9v32.1q0 1.1-0.6 1.7-0.6 0.5-1.8 0.5h-6.6q-2.1 0-2.1-2.2zm0-14.6q0-1.2 0.5-1.7 0.5-0.5 1.6-0.5h6.7q1 0 1.6 0.5 0.7 0.5 0.7 1.7v5.6q0 0.4-0.2 0.8-0.2 0.4-0.4 0.8-0.3 0.3-0.7 0.6-0.5 0.2-1 0.2h-6.7q-2.1 0-2.1-2.4zm41.4 37.7q0.4-0.3 0.8-0.4 0.3 0 0.5 0 0.5 0 0.9 0.2 0.4 0.2 0.9 0.8l3.2 4.9q0.1 0.2 0.3 0.5 0.1 0.3 0.1 0.5 0 0.7-0.4 1.1-0.4 0.4-0.9 0.7-2.4 1.6-5.2 2.6-2.8 1-6 1-2.6 0-5-0.6-2.4-0.7-4.4-1.9-2.1-1.2-3.8-3-1.8-1.7-3-3.8-1.2-2.1-1.9-4.5-0.6-2.4-0.6-5.1 0-2.6 0.6-5.1 0.7-2.4 1.9-4.5 1.2-2.1 3-3.8 1.7-1.8 3.8-3 2-1.2 4.4-1.8 2.4-0.7 5-0.7 3.2 0 5.8 0.8 2.7 0.9 5 2.5v-0.1q0.6 0.4 1 0.9 0.3 0.5 0.3 1.3 0 0.5-0.3 1l-2.6 4.4q-0.8 1.4-1.9 1.4-0.3 0-0.7-0.1-0.3-0.2-0.8-0.5-1.3-0.8-2.7-1.4-1.5-0.5-3.1-0.5-1.8 0-3.4 0.7-1.5 0.8-2.6 2-1 1.3-1.7 3-0.6 1.7-0.6 3.5 0 1.9 0.6 3.6 0.7 1.6 1.7 2.8 1.1 1.2 2.6 1.9 1.6 0.8 3.4 0.8 1.6 0 3.1-0.6 1.4-0.6 2.7-1.5zm9.8-7q0-2.6 0.7-5.1 0.7-2.4 1.9-4.5 1.2-2.1 2.9-3.8 1.8-1.8 3.9-3 2.1-1.2 4.5-1.8 2.4-0.7 5.1-0.7 3.9 0 7.4 1.5 3.4 1.4 5.9 4 2.6 2.5 4.1 6 1.5 3.4 1.5 7.4 0 2.7-0.7 5.1-0.7 2.4-1.9 4.5-1.2 2.1-3 3.8-1.7 1.8-3.8 3-2.1 1.2-4.5 1.9-2.4 0.6-5 0.6-2.7 0-5.1-0.6-2.4-0.7-4.5-1.9-2.1-1.2-3.9-3-1.7-1.7-2.9-3.8-1.2-2.1-1.9-4.5-0.7-2.4-0.7-5.1zm10.5 0q0 1.9 0.6 3.6 0.6 1.6 1.7 2.8 1.1 1.2 2.6 1.9 1.6 0.8 3.5 0.8 1.9 0 3.4-0.8 1.5-0.7 2.6-1.9 1-1.2 1.6-2.8 0.5-1.7 0.5-3.6 0-1.8-0.5-3.5-0.6-1.7-1.6-3-1.1-1.2-2.6-2-1.5-0.7-3.4-0.7-1.9 0-3.5 0.7-1.5 0.8-2.6 2-1.1 1.3-1.7 3-0.6 1.7-0.6 3.5zm43.3 16.1q-0.2 0.5-0.4 0.9-0.2 0.4-0.4 0.7-0.2 0.3-0.5 0.4-0.3 0.2-0.9 0.2h-5.7q-2.3 0-2.3-2.2v-43.1q0-0.5 0.2-0.9 0.2-0.4 0.5-0.7 0.3-0.3 0.7-0.4 0.4-0.2 0.7-0.2h6.6q1.1 0 1.7 0.6 0.6 0.7 0.6 1.6v13.1q0.8-0.8 1.8-1.7 0.9-0.9 2-1.6 1-0.8 2.3-1.2 1.3-0.5 2.9-0.5 3.9 0 7.2 1.5 3.3 1.4 5.7 4 2.4 2.5 3.7 6 1.4 3.4 1.4 7.4 0 4-1.4 7.4-1.3 3.5-3.7 6-2.4 2.6-5.7 4.1-3.3 1.4-7.2 1.4-1.4 0-2.7-0.5-1.3-0.5-2.5-1.3-1.1-0.7-2-1.6-1-0.9-1.8-1.7zm17.4-16q0-1.9-0.6-3.6-0.6-1.6-1.7-2.9-1.1-1.3-2.6-2-1.5-0.7-3.4-0.7-1.9 0-3.6 0.7-1.6 0.7-2.8 2-1.3 1.3-2 2.9-0.7 1.7-0.7 3.6v0.4q0.1 1.8 0.9 3.4 0.7 1.5 1.9 2.7 1.2 1.2 2.8 1.8 1.6 0.7 3.5 0.7 1.9 0 3.4-0.7 1.5-0.7 2.6-1.9 1.1-1.2 1.7-2.9 0.6-1.6 0.6-3.5zm53.9 16.1q0 0.5-0.2 0.9-0.2 0.5-0.6 0.7-0.3 0.4-0.7 0.4-0.5 0.1-0.8 0.1h-5.7q-0.6 0-0.9-0.1-0.4-0.2-0.7-0.5-0.2-0.3-0.3-0.7-0.2-0.4-0.4-0.9l-0.8-2.2q-0.8 0.8-1.7 1.7-0.9 0.9-2 1.6-1.1 0.8-2.4 1.3-1.3 0.5-2.8 0.5-2.6 0-5-0.7-2.4-0.6-4.5-1.9-2.1-1.2-3.8-2.9-1.7-1.7-2.9-3.8-1.3-2.1-1.9-4.6-0.7-2.4-0.7-5 0-4 1.5-7.5 1.4-3.4 4-6 2.5-2.5 5.9-4 3.5-1.4 7.4-1.4 1.8 0 3.3 0.5 1.5 0.5 2.7 1.4 1.2 0.8 2.2 1.9 1 1.1 1.8 2.3l1.1-3.5q0.3-0.7 0.5-1.2 0.2-0.4 0.4-0.7 0.2-0.2 0.5-0.2 0.3-0.1 0.9-0.1h4.3q0.3 0 0.8 0.1 0.4 0.1 0.7 0.4 0.4 0.3 0.6 0.7 0.2 0.4 0.2 0.9zm-28.4-16.1q0 1.9 0.6 3.5 0.6 1.7 1.7 2.9 1 1.2 2.6 1.9 1.5 0.7 3.4 0.7 1.9 0 3.6-0.7 1.6-0.7 2.9-1.9 1.2-1.2 1.9-2.9 0.7-1.6 0.7-3.5 0-1.9-0.7-3.5-0.7-1.7-1.9-3-1.3-1.2-2.9-2-1.7-0.7-3.6-0.7-1.9 0-3.4 0.7-1.6 0.8-2.6 2-1.1 1.3-1.7 3-0.6 1.6-0.6 3.5zm35.3-16.2q0-0.5 0.2-0.9 0.2-0.5 0.5-0.8 0.8-0.4 1.6-0.4h4.3q0.6 0 0.9 0.2 0.3 0.2 0.5 0.5 0.2 0.3 0.4 0.7 0.2 0.4 0.4 0.8 0 0.1 0.2 0.6 0.2 0.4 0.4 0.9 0.2 0.6 0.4 1.1 0.2 0.4 0.2 0.6 0.9-1 1.7-2 0.8-1.1 1.7-2 0.9-0.9 2-1.4 1.1-0.6 2.6-0.6 1.5 0 2.7 0.2 1.3 0.2 2.4 0.7 1 0.4 2.1 1.1 1.1 0.7 2.4 1.6 2 1.1 0.7 3.2l-2.6 4.5q-0.6 0.8-1.4 1-0.8 0.2-1.8-0.2-1.3-1.2-2.5-1.8-1.3-0.6-3-0.6-1.1 0-1.9 0.3-0.9 0.3-1.6 0.9-0.7 0.6-1.3 1.4-0.6 0.8-1.2 1.8v20.8q0 1.1-0.5 1.7-0.6 0.6-1.8 0.6h-6.5q-2.2 0-2.2-2.3z"/>
	</g>
</svg>