<svg version="1.2" xmlns="http://www.w3.org/2000/svg" viewBox="0 0 370 82" width="370" height="82">
	<title>test-svg</title>
	<style>
		.s0 { fill: #0f1021 } 
	</style>
	<g id="SvgjsG1668">
		<path id="Layer" fill-rule="evenodd" class="s0" d="m92.1 38.9c0 5.6-3.5 10.5-8.6 12.5v12.2c0 2.2-1.8 3.9-4 3.9h-25.6v11.6c0 1.1-0.9 1.9-2 1.9-1 0-1.9-0.8-1.9-1.9v-11.6h-7.9v11.6c0 1.1-0.9 1.9-1.9 1.9-1.1 0-2-0.8-2-1.9v-11.6h-25.6c-2.2 0-4-1.7-4-3.9v-12.2c-5.1-2-8.6-6.9-8.6-12.5 0-5.7 3.5-10.6 8.6-12.5v-10.9c0-2.2 1.8-4 4-4h20.2c0.9-6.5 6.5-11.5 13.3-11.5 6.7 0 12.3 5 13.2 11.5h20.2c2.2 0 4 1.8 4 4v10.9c5.1 1.9 8.6 6.8 8.6 12.5zm-72.1 1.5q0.5 0.3 1.1 0.3c0.6 0 1.2-0.2 1.5-0.7l4.3-5.7 4.2 5.7c0.4 0.5 0.9 0.7 1.5 0.7q0.6 0 1.2-0.3c0.8-0.7 1-1.9 0.4-2.7l-4.9-6.6 4.9-6.5c0.6-0.8 0.4-2-0.4-2.7-0.9-0.6-2.1-0.4-2.7 0.4l-4.2 5.6-4.3-5.6c-0.6-0.8-1.8-1-2.6-0.4-0.9 0.7-1.1 1.9-0.4 2.7l4.9 6.5-4.9 6.6c-0.7 0.8-0.5 2 0.4 2.7zm45.2 11.9c0-1-0.6-1.8-1.6-1.9l-34.5-5.8q-0.2 0-0.3 0c-4.2 0-7.7 3.4-7.7 7.7 0 4.2 3.5 7.6 7.7 7.6q0.1 0 0.3 0l34.5-5.8c1-0.1 1.6-0.9 1.6-1.8zm-1.4-21.2l4.9-6.5c0.6-0.8 0.5-2-0.4-2.7-0.8-0.6-2-0.4-2.7 0.4l-4.2 5.6-4.2-5.6c-0.7-0.8-1.9-1-2.7-0.4-0.8 0.7-1 1.9-0.4 2.7l4.9 6.5-4.9 6.6c-0.6 0.8-0.4 2 0.4 2.7q0.5 0.3 1.1 0.3c0.6 0 1.2-0.2 1.6-0.7l4.2-5.7 4.2 5.7c0.4 0.5 1 0.7 1.6 0.7q0.6 0 1.1-0.3c0.9-0.7 1-1.9 0.4-2.7z"/>
	</g>
	<g id="SvgjsG1669">
		<path id="Layer" fill-rule="evenodd" class="s0" d="m142.6 16.5h10.9v47.4h-8.4l-22.2-27.6v27.6h-10.9v-47.4h8.5l22.1 27.5zm29.1-0.4v9h-10.7v-9zm0 12.6v35.3h-10.7v-35.3zm24.2-0.6c6.5 0 11.9 2.7 15.2 8.4l-8.1 3.9c-1.8-1.5-3.2-2.9-6.9-2.9-4.1 0-8.2 3.2-8.2 8.9 0 5.7 4.1 8.7 8.2 8.7 3.7 0 5.1-1.2 6.9-2.7l8.2 3.8c-3.4 5.7-8.7 8.3-15.3 8.3-7.8 0-18.4-5.6-18.4-18.1 0-12.2 10.6-18.3 18.4-18.3zm38.3 0c8 0 18.6 6.1 18.6 18.4 0 12.4-10.6 18.1-18.6 18.1-8 0-18.6-5.7-18.6-18.1 0-12.3 10.6-18.4 18.6-18.4zm0 9.4c-4.1 0-8.2 3.2-8.2 9 0 5.6 4.1 8.7 8.2 8.7 4.1 0 8.3-3.1 8.3-8.7 0-5.8-4.2-9-8.3-9zm44.2-9.4c8 0 17.3 6.1 17.3 18.2 0 12.6-9.3 18.3-17.3 18.3-5.5 0-8.6-2.9-9.1-4.2v3.6h-10.7v-47.9h10.7v15.9c0.5-0.8 3.6-3.9 9.1-3.9zm-1.6 27.1c4.6 0 8.5-3.1 8.5-8.9 0-5.6-3.9-8.8-8.5-8.8-4.4 0-8 3.1-8 8.8 0 5.9 3.6 8.9 8 8.9zm50.1-26.5h10.7v35.3h-10.7v-3.6c-0.5 1.3-3.7 4.2-9.1 4.2-8.1 0-17.3-5.7-17.3-18.3 0-12.1 9.2-18.2 17.3-18.2 5.4 0 8.6 3.1 9.1 3.9zm-7.5 26.5c4.4 0 7.9-3.1 7.9-9 0-5.7-3.5-8.7-7.9-8.7-4.7 0-8.6 3.1-8.6 8.7 0 5.9 3.9 9 8.6 9zm47.7-27.1c1 0 1.9 0 2.8 0.3v10.2c-0.8-0.2-1.8-0.2-2.5-0.2-6.5 0-11.7 4.7-12.2 11.2v14.3h-10.7v-35.2h10.7v8.6c1.6-5.3 5.7-9.2 11.9-9.2z"/>
	</g>
</svg>