<?xml version="1.0" encoding="UTF-8" standalone="no"?>
<!DOCTYPE svg PUBLIC "-//W3C//DTD SVG 1.1//EN" "http://www.w3.org/Graphics/SVG/1.1/DTD/svg11.dtd">
<svg xmlns="http://www.w3.org/2000/svg" version="1.1" viewBox="0.00 0.00 2244.00 378.00">
<path fill="#e41c39" d="
  M 1374.31 0.00
  L 1778.81 0.00
  C 1829.24 0.91 1881.04 4.11 1929.49 15.53
  C 1993.49 30.62 2053.11 64.39 2103.31 105.20
  C 2142.17 136.79 2173.33 159.00 2208.45 185.82
  C 2221.50 195.79 2239.69 209.40 2244.00 223.57
  L 2244.00 228.90
  Q 2240.70 236.11 2231.46 238.97
  C 2213.75 244.45 2196.00 245.52 2177.99 245.48
  C 2129.56 245.39 2086.47 225.72 2046.36 200.37
  C 2010.11 177.46 1969.60 147.19 1940.81 126.94
  C 1892.18 92.73 1840.25 62.02 1783.77 42.71
  Q 1726.85 23.26 1668.94 19.58
  Q 1658.41 18.91 1619.94 17.54
  Q 1495.78 13.11 1372.18 0.63
  Q 1371.95 0.60 1372.03 0.38
  Q 1372.09 0.22 1372.24 0.25
  Q 1373.50 0.45 1374.31 0.00
  Z"
/>
<path fill="#212733" d="
  M 1200.44 115.44
  C 1222.72 90.95 1256.33 84.12 1288.49 88.49
  C 1313.77 91.92 1325.14 107.52 1318.08 132.66
  C 1302.64 187.61 1261.87 224.02 1201.73 216.38
  C 1141.50 208.73 1179.24 138.73 1200.44 115.44
  Z
  M 1268.98 116.03
  C 1235.51 112.38 1216.56 140.72 1208.28 168.66
  C 1204.61 181.05 1207.57 188.14 1221.25 188.99
  C 1252.69 190.95 1269.52 165.69 1278.11 139.53
  C 1281.29 129.86 1283.04 117.57 1268.98 116.03
  Z"
/>
<path fill="#212733" d="
  M 178.75 138.50
  L 251.22 138.50
  Q 251.80 138.50 251.56 139.03
  L 239.15 166.17
  A 1.00 0.99 -77.3 0 1 238.25 166.75
  L 165.02 166.75
  Q 164.49 166.75 164.27 167.24
  L 142.81 214.25
  Q 142.58 214.75 142.03 214.75
  L 107.23 214.75
  Q 106.50 214.75 106.80 214.08
  Q 121.35 182.00 136.15 149.92
  C 148.48 123.20 161.98 101.63 192.25 93.75
  Q 207.26 89.84 223.81 89.67
  Q 248.69 89.41 273.69 89.52
  A 0.33 0.33 0.0 0 1 273.99 89.98
  L 261.40 117.57
  A 0.71 0.70 -77.5 0 1 260.76 117.98
  Q 238.06 118.04 215.53 118.01
  Q 192.00 117.97 178.53 138.09
  Q 178.26 138.50 178.75 138.50
  Z"
/>
<path fill="#212733" d="
  M 297.68 89.93
  A 0.72 0.70 -77.5 0 1 298.32 89.51
  Q 331.91 89.46 365.75 89.54
  C 391.20 89.60 409.12 98.13 397.90 127.43
  Q 387.32 155.06 358.52 164.68
  Q 357.93 164.87 358.03 165.49
  L 365.76 214.07
  A 0.59 0.59 0.0 0 1 365.18 214.75
  L 328.77 214.75
  A 0.94 0.94 0.0 0 1 327.84 213.95
  L 321.28 169.47
  A 0.56 0.55 -4.2 0 0 320.73 169.00
  L 297.78 169.00
  Q 297.38 169.00 297.22 169.36
  L 276.70 214.27
  Q 276.48 214.75 275.96 214.75
  L 241.49 214.75
  A 0.53 0.53 0.0 0 1 241.01 214.00
  L 297.68 89.93
  Z
  M 319.95 120.02
  L 311.09 139.31
  Q 310.81 139.93 311.49 139.94
  Q 327.21 140.18 342.94 139.86
  Q 358.53 139.54 362.91 125.15
  Q 363.54 123.07 363.57 122.84
  C 363.96 119.42 354.81 119.01 352.75 119.00
  Q 336.67 118.99 320.59 119.01
  Q 320.18 119.01 320.03 119.39
  Q 319.97 119.53 320.00 119.70
  Q 320.02 119.87 319.95 120.02
  Z"
/>
<path fill="#212733" d="
  M 452.24 137.25
  L 521.53 137.25
  A 0.57 0.56 -77.8 0 1 522.04 138.05
  L 509.48 165.52
  Q 509.26 166.00 508.72 166.00
  L 437.54 166.00
  Q 437.14 166.00 436.99 166.37
  C 432.13 178.79 432.96 186.25 448.54 186.24
  Q 473.99 186.21 499.44 186.27
  Q 500.00 186.27 499.76 186.78
  L 487.23 214.20
  A 0.89 0.88 -77.3 0 1 486.43 214.71
  Q 462.14 214.84 438.01 214.71
  C 399.97 214.50 387.18 191.81 401.76 157.22
  C 418.80 116.77 444.48 90.34 490.81 89.77
  Q 517.24 89.44 543.53 89.49
  A 0.45 0.44 12.2 0 1 543.94 90.12
  L 531.45 117.46
  A 0.89 0.88 -77.3 0 1 530.65 117.97
  Q 512.54 118.06 494.54 117.99
  Q 480.61 117.94 475.08 119.40
  Q 460.61 123.21 451.88 136.59
  Q 451.46 137.25 452.24 137.25
  Z"
/>
<path fill="#212733" d="
  M 538.00 169.63
  C 550.34 125.86 582.70 90.53 630.97 89.66
  Q 652.31 89.28 684.00 89.58
  Q 684.55 89.59 684.32 90.08
  L 671.85 117.30
  Q 671.66 117.72 671.19 117.73
  Q 652.37 117.80 633.63 117.75
  Q 619.99 117.72 614.51 119.20
  C 594.66 124.56 584.69 146.60 577.11 163.59
  C 574.05 170.46 570.41 180.21 579.55 184.44
  Q 583.34 186.19 587.06 186.21
  Q 613.46 186.29 639.54 186.24
  A 0.53 0.52 12.2 0 1 640.02 186.98
  L 627.54 214.31
  Q 627.35 214.72 626.90 214.73
  Q 602.22 214.81 577.50 214.72
  C 549.70 214.61 529.45 199.98 538.00 169.63
  Z"
/>
<path fill="#212733" d="
  M 668.29 166.77
  C 681.63 123.97 713.43 90.46 760.96 89.73
  Q 787.18 89.33 813.51 89.54
  A 0.44 0.44 0.0 0 1 813.90 90.16
  L 801.48 117.24
  A 0.87 0.87 0.0 0 1 800.69 117.75
  Q 781.60 117.76 762.34 117.75
  Q 749.65 117.74 744.29 119.25
  C 723.27 125.16 712.81 148.71 705.43 167.11
  C 701.14 177.80 704.15 186.14 716.82 186.19
  Q 743.01 186.31 769.23 186.23
  A 0.48 0.48 0.0 0 1 769.67 186.91
  L 757.13 214.32
  Q 756.93 214.76 756.45 214.76
  Q 743.82 214.76 707.76 214.71
  C 677.56 214.68 658.33 198.70 668.29 166.77
  Z"
/>
<path fill="#212733" d="
  M 852.81 89.50
  L 889.07 89.50
  A 0.37 0.37 0.0 0 1 889.41 90.02
  L 832.50 214.53
  A 0.37 0.37 0.0 0 1 832.16 214.75
  L 795.94 214.75
  A 0.37 0.37 0.0 0 1 795.60 214.23
  L 852.47 89.72
  A 0.37 0.37 0.0 0 1 852.81 89.50
  Z"
/>
<path fill="#212733" d="
  M 963.71 89.50
  L 997.25 89.50
  A 0.33 0.33 0.0 0 1 997.58 89.83
  L 997.20 214.42
  A 0.33 0.33 0.0 0 1 996.87 214.75
  L 959.80 214.75
  A 0.33 0.33 0.0 0 1 959.47 214.41
  L 960.62 187.09
  A 0.33 0.33 0.0 0 0 960.29 186.75
  L 913.50 186.75
  A 0.33 0.33 0.0 0 0 913.25 186.87
  L 889.72 214.63
  A 0.33 0.33 0.0 0 1 889.47 214.75
  L 851.12 214.75
  A 0.33 0.33 0.0 0 1 850.88 214.20
  L 963.46 89.61
  A 0.33 0.33 0.0 0 1 963.71 89.50
  Z
  M 961.94 130.44
  Q 950.71 143.69 939.23 156.88
  Q 938.69 157.50 939.51 157.50
  L 961.19 157.50
  Q 961.88 157.50 961.91 156.81
  L 963.07 130.23
  A 0.47 0.47 0.0 0 0 962.39 129.79
  Q 961.99 129.99 961.94 130.44
  Z"
/>
<path fill="#212733" d="
  M 1093.80 169.00
  L 1071.20 169.00
  A 1.01 1.01 0.0 0 0 1070.28 169.59
  L 1049.83 214.36
  Q 1049.65 214.75 1049.22 214.75
  L 1014.52 214.75
  A 0.45 0.45 0.0 0 1 1014.11 214.11
  L 1070.70 90.24
  Q 1071.03 89.53 1071.81 89.53
  Q 1105.76 89.44 1140.24 89.52
  C 1156.64 89.55 1178.71 94.70 1174.28 116.77
  C 1169.81 139.04 1154.02 157.88 1131.83 164.51
  A 0.92 0.92 0.0 0 0 1131.19 165.53
  L 1138.97 214.43
  A 0.28 0.28 0.0 0 1 1138.69 214.75
  L 1101.56 214.75
  A 0.52 0.52 0.0 0 1 1101.05 214.31
  L 1094.44 169.56
  A 0.65 0.65 0.0 0 0 1093.80 169.00
  Z
  M 1093.31 119.56
  L 1084.28 139.28
  Q 1083.96 139.96 1084.71 139.97
  Q 1094.76 140.07 1104.82 140.02
  C 1121.37 139.94 1132.75 140.21 1136.76 122.66
  A 1.47 1.45 -70.4 0 0 1135.99 121.02
  Q 1131.90 118.99 1126.75 118.99
  Q 1110.25 118.97 1094.16 119.02
  A 0.94 0.93 12.3 0 0 1093.31 119.56
  Z"
/>
<path fill="#212733" d="
  M 1367.00 166.98
  C 1351.35 167.00 1330.18 161.43 1334.95 140.26
  C 1342.11 108.47 1367.59 89.66 1399.81 89.56
  Q 1438.65 89.44 1477.51 89.52
  A 0.49 0.49 0.0 0 1 1477.96 90.22
  L 1465.09 118.32
  Q 1464.89 118.75 1464.42 118.75
  Q 1429.79 118.74 1395.28 118.80
  Q 1379.87 118.82 1373.64 132.53
  C 1372.11 135.90 1373.91 138.38 1377.44 138.41
  C 1393.80 138.56 1410.76 137.63 1427.01 139.20
  C 1460.30 142.42 1449.42 172.07 1437.36 189.38
  C 1423.62 209.10 1402.88 214.68 1379.94 214.72
  Q 1342.39 214.79 1305.22 214.74
  Q 1304.38 214.73 1304.73 213.97
  L 1317.48 186.02
  A 0.91 0.89 12.2 0 1 1318.30 185.50
  Q 1354.35 185.57 1390.73 185.29
  Q 1405.11 185.17 1409.52 171.80
  Q 1410.00 170.36 1409.62 168.97
  A 0.99 0.98 -87.0 0 0 1409.03 168.31
  Q 1405.99 167.14 1402.69 167.11
  Q 1384.84 166.96 1367.00 166.98
  Z"
/>
<path fill="#212733" d="
  M 1494.44 109.44
  C 1509.40 93.39 1528.45 89.60 1549.55 89.54
  Q 1585.44 89.43 1621.33 89.53
  Q 1621.83 89.53 1621.62 89.98
  L 1608.68 118.24
  Q 1608.46 118.74 1607.91 118.74
  Q 1574.07 118.78 1540.25 118.74
  C 1529.39 118.73 1519.65 123.79 1516.48 134.77
  Q 1516.34 135.24 1516.57 135.67
  Q 1518.10 138.52 1520.82 138.50
  Q 1550.37 138.32 1565.25 138.69
  Q 1571.48 138.84 1579.28 140.88
  C 1605.74 147.79 1586.91 182.69 1576.81 194.47
  C 1563.36 210.18 1544.20 214.66 1524.39 214.72
  Q 1486.47 214.82 1448.54 214.72
  A 0.38 0.37 -77.8 0 1 1448.20 214.19
  L 1461.03 186.04
  Q 1461.28 185.50 1461.87 185.50
  Q 1494.43 185.51 1526.91 185.46
  C 1540.35 185.44 1550.55 184.27 1553.34 169.97
  A 1.71 1.71 0.0 0 0 1552.07 167.99
  Q 1549.10 167.25 1546.18 167.21
  Q 1528.34 166.97 1510.50 166.99
  C 1498.51 167.00 1482.19 164.13 1478.78 150.94
  C 1475.39 137.82 1485.34 119.20 1494.44 109.44
  Z"
/>
<path fill="#212733" d="
  M 1690.71 89.50
  L 1724.17 89.50
  A 0.39 0.39 0.0 0 1 1724.56 89.89
  L 1724.18 214.36
  A 0.39 0.39 0.0 0 1 1723.79 214.75
  L 1686.83 214.75
  A 0.39 0.39 0.0 0 1 1686.44 214.34
  L 1687.59 187.16
  A 0.39 0.39 0.0 0 0 1687.20 186.75
  L 1640.52 186.75
  A 0.39 0.39 0.0 0 0 1640.22 186.89
  L 1616.70 214.61
  A 0.39 0.39 0.0 0 1 1616.40 214.75
  L 1578.23 214.75
  A 0.39 0.39 0.0 0 1 1577.94 214.10
  L 1690.42 89.63
  A 0.39 0.39 0.0 0 1 1690.71 89.50
  Z
  M 1688.94 130.44
  Q 1677.62 143.65 1666.25 156.92
  Q 1665.74 157.50 1666.51 157.50
  L 1688.18 157.50
  Q 1688.86 157.50 1688.89 156.82
  L 1690.04 130.22
  A 0.46 0.45 -12.7 0 0 1689.37 129.80
  Q 1688.99 130.00 1688.94 130.44
  Z"
/>
<path fill="#e41c39" d="
  M 2110.65 378.00
  L 2070.19 378.00
  Q 2052.67 376.66 2031.50 373.51
  C 1721.34 327.28 1406.93 310.07 1093.56 311.19
  Q 676.72 312.68 261.93 353.87
  Q 164.86 363.51 68.14 376.18
  Q 60.11 377.23 52.30 377.25
  Q 27.74 377.30 2.22 376.90
  Q -0.44 376.85 2.17 376.36
  C 204.15 337.88 409.11 314.70 614.07 299.69
  Q 949.49 275.13 1285.81 277.48
  C 1435.94 278.53 1586.36 283.86 1736.07 295.29
  Q 1852.62 304.18 1968.28 321.03
  Q 2002.91 326.08 2037.74 329.32
  C 2084.15 333.63 2131.41 335.52 2177.74 329.51
  C 2196.45 327.08 2236.13 318.94 2243.35 298.05
  Q 2243.49 297.64 2243.76 297.98
  Q 2243.94 298.22 2243.81 298.53
  C 2220.62 351.89 2165.09 374.20 2110.65 378.00
  Z"
/>
</svg>
