<?xml version="1.0" encoding="UTF-8" standalone="no"?>
<svg
   width="260"
   height="65.001"
   viewBox="0 0 260 65.001"
   version="1.1"
   id="svg12"
   xmlns="http://www.w3.org/2000/svg"
   xmlns:svg="http://www.w3.org/2000/svg">
  <defs
     id="defs4">
    <style
       id="style2">.a,.b{fill:#fff;}.b{fill-rule:evenodd;}</style>
  </defs>
  <g
     transform="translate(-2059 -19.128)"
     id="g10"
     style="fill:#aa1136;fill-opacity:1">
    <path
       class="a"
       d="M2294.665,58.487c.355,1.282-4.134,1.643-6.079,1.643-7.426,0-23.438-.361-40.646,10.489-17.752,11.176-22.839,11.627-23.887,11.79-.224.036-1.029.144-1.029.9,0,.65.973.813,1.366.813,1.2,0,7.052-.47,23.063-7.583,10.456-4.658,17.34-4.3,18.892-4.3,5.256,0,11.56,1.535,22.128,6.138a72.106,72.106,0,0,0,29.162,5.742c.374,0,1.365-.018,1.365-.74,0-.741-.767-.921-1.029-.975-5.031-.993-24.148-3.72-24.148-9.678,0-5.939,11.111-5.614,11.522-5.614a1.949,1.949,0,0,0,2.095-2.51,6.545,6.545,0,0,0-2.544-3.394s-11.167-9.6-24.84-9.027c-12.813.541.954,3.863,6.154,4.459C2294.328,57.548,2294.571,58.144,2294.665,58.487Z"
       id="path6"
       style="fill:#aa1136;fill-opacity:1" />
    <path
       class="b"
       d="M2216.983,63.686c-1.983,3.882-5.256,6.951-10.064,6.951-4.825,0-8.1-3.069-10.082-6.951a24.655,24.655,0,0,1,0-21.195c1.983-3.882,5.257-6.951,10.082-6.951,4.808,0,8.081,3.069,10.064,6.951a24.653,24.653,0,0,1,0,21.195Zm6.341-26.485c-4.115-4.55-10.363-6.753-16.405-6.753-6.06,0-12.289,2.2-16.423,6.753a23.37,23.37,0,0,0-5.686,15.9,23.306,23.306,0,0,0,5.686,15.87c4.134,4.568,10.363,6.752,16.423,6.752,6.042,0,12.29-2.184,16.405-6.752a23.371,23.371,0,0,0,5.686-15.906A23.27,23.27,0,0,0,2223.324,37.2ZM2064.387,64.986A5.371,5.371,0,1,1,2059,70.348,5.359,5.359,0,0,1,2064.387,64.986Zm109.537-1.715c0,7.366,5.967,7.366,7.37,7.366a61.426,61.426,0,0,0,6.808-.559l.561,4.531a36.243,36.243,0,0,1-9.072,1.138c-4.3,0-9.577-1.752-12.457-5.11-3.405-3.954-3.405-9.623-3.405-17.549V19.128c5.724,0,10.2,1.12,10.2,4.532Zm-55.76,11.338a40.651,40.651,0,0,1-9.072,1.138c-4.7,0-9.577-1.752-12.457-5.11-3.405-3.954-3.405-9.623-3.405-17.549V19.128c5.724,0,10.194,1.12,10.194,4.532v6.788h9.2l.636,5.092h-9.839V63.271c0,7.366,5.967,7.366,7.37,7.366a61.428,61.428,0,0,0,6.809-.559Zm-43.3-44.738c5.724,0,10.213,1.137,10.213,4.531V75.728c-5.724,0-10.213-1.137-10.213-4.531Zm71.752,27.189c0,5.092-1.1,13.577-10.213,13.577-4.882,0-7.351-3.394-7.351-7.366,0-9.442,9.222-10.2,13.131-10.183,3.891.018,4.433,0,4.433,0Zm-15.525-26.612h-7.22l.655,5.092h5.667c13.019,0,16.423,4.206,16.423,10.182v1.715h-7.369c-3.386,0-20.389-.18-20.389,14.715,0,0-.636,13.576,15.282,13.576,10.194.019,12.4-5.434,12.4-5.434l.074-.325v.668c-.093,3.2,4.134,5.091,10.2,5.091V51.951C2156.809,46.517,2157.987,30.448,2131.089,30.448Z"
       id="path8"
       style="fill:#aa1136;fill-opacity:1" />
  </g>
</svg>
