<?xml version="1.0" encoding="UTF-8"?>
<svg id="a" data-name="Livello 1" xmlns="http://www.w3.org/2000/svg" width="929.242" height="458.269" viewBox="0 0 929.242 458.269">
  <path d="M605.991,.019c-3.025,2.216-5.991,4.51-8.894,6.883-13.389,10.901-25.483,23.327-36.015,37.015-3.499,4.536-6.823,9.211-9.957,14.012l-3.887,5.469-27.755,39.059-123.541,173.862-26.524,37.332-9.755,13.728H222.187l11.818-16.631,90.757-127.723,75.003-105.548c.187-.261,.369-.526,.556-.787l.798-1.123c.791-1.112,1.593-2.212,2.402-3.302,.104-.142,.209-.28,.313-.418,.339-.451,.683-.903,1.026-1.354,13.102-17.09,29.207-31.758,47.52-43.218,3.731-2.335,7.554-4.536,11.46-6.599,.642-.339,1.287-.671,1.932-1.004,.586-.302,1.175-.597,1.765-.892,1.239-.619,2.488-1.224,3.745-1.809,.269-.127,.537-.254,.806-.377,.478-.224,.955-.444,1.436-.657,.239-.108,.474-.216,.713-.321,.317-.145,.634-.287,.955-.425,.254-.112,.504-.22,.757-.332,.403-.179,.81-.354,1.216-.522,.407-.175,.817-.347,1.224-.515,.754-.317,1.511-.627,2.268-.929,.119-.052,.239-.101,.358-.145,.347-.138,.698-.276,1.048-.414,.026-.015,.048-.022,.075-.03,1.63-.638,3.268-1.25,4.913-1.839,.418-.149,.836-.298,1.253-.444,.798-.28,1.6-.552,2.402-.821,.112-.041,.228-.078,.343-.112,.601-.201,1.201-.395,1.802-.586,.269-.093,.541-.179,.813-.257,.317-.104,.634-.201,.955-.298,.425-.134,.847-.265,1.272-.388,.272-.082,.541-.164,.813-.242,.392-.116,.783-.231,1.175-.343,0,0,.004-.007,.004,0,.187-.056,.373-.108,.563-.164,.694-.194,1.392-.388,2.089-.578,.713-.194,1.429-.381,2.149-.567,13.643-3.51,27.908-5.458,42.603-5.644h60.7Z" fill="#009e60"/>
  <path d="M415.646,.018c-3.025,2.216-5.991,4.51-8.894,6.883-13.389,10.901-25.483,23.327-36.015,37.015-3.499,4.536-6.823,9.211-9.957,14.012l-3.887,5.469-27.755,39.059-123.541,173.862-26.524,37.332-9.755,13.728H31.842l11.818-16.631,90.757-127.723,75.003-105.548c.187-.261,.369-.526,.556-.787l.798-1.123c.791-1.112,1.593-2.212,2.402-3.302,.104-.142,.209-.28,.313-.418,.339-.451,.683-.903,1.026-1.354,13.102-17.09,29.207-31.758,47.52-43.218,3.731-2.335,7.554-4.536,11.46-6.599,.642-.339,1.287-.671,1.932-1.004,.586-.302,1.175-.597,1.765-.892,1.239-.619,2.488-1.224,3.745-1.809,.269-.127,.537-.254,.806-.377,.478-.224,.955-.444,1.436-.657,.239-.108,.474-.216,.713-.321,.317-.145,.634-.287,.955-.425,.254-.112,.504-.22,.757-.332,.403-.179,.81-.354,1.216-.522,.407-.175,.817-.347,1.224-.515,.754-.317,1.511-.627,2.268-.929,.119-.052,.239-.101,.358-.145,.347-.138,.698-.276,1.048-.414,.026-.015,.048-.022,.075-.03,1.63-.638,3.268-1.25,4.913-1.839,.418-.149,.836-.298,1.253-.444,.798-.28,1.6-.552,2.402-.821,.112-.041,.228-.078,.343-.112,.601-.201,1.201-.395,1.802-.586,.269-.093,.541-.179,.813-.257,.317-.104,.634-.201,.955-.298,.425-.134,.847-.265,1.272-.388,.272-.082,.541-.164,.813-.242,.392-.116,.783-.231,1.175-.343,0,0,.004-.007,.004,0,.187-.056,.373-.108,.563-.164,.694-.194,1.392-.388,2.089-.578,.713-.194,1.429-.381,2.149-.567C325.985,2.151,340.251,.204,354.946,.018h60.7Z" fill="#00685e"/>
  <path d="M899.015,0c-72.227,23.32-138.042,60.901-194.131,109.425l-.007,.007c-67.758,58.614-121.318,133.199-154.833,217.898l-.004,.004-.03,.045h-137.475l11.818-16.631,51.795-72.891c.056-.082,.116-.164,.172-.246l3.906-5.495c.034-.045,.067-.09,.097-.134,70.25-97.476,171.05-171.471,288.376-207.956,41.57-12.926,85.221-21.145,130.316-24.025Z" fill="#da291c"/>
  <g id="b" data-name="&amp;lt;Ombra&amp;gt;">
    <path d="M282.715,105.302c-33.556,0-66.822,3.059-99.323,8.804l-6.823,9.602c35.321-6.778,70.877-10.199,106.146-10.199,12.591,0,25.163,.41,37.697,1.224l5.577-7.845c-14.288-1.052-28.722-1.585-43.275-1.585Z" fill="#004339"/>
    <path d="M374.841,112.551l-5.32,7.487c15.5,2.35,30.882,5.327,46.087,8.931,23.693,5.614,47.046,12.758,69.855,21.365l4.913-6.916c-36.869-14.072-75.533-24.506-115.536-30.867Z" fill="#155b30"/>
    <path d="M614.422,208.877c-24.211-16.791-49.762-31.795-76.458-44.823-2.037,2.044-4.055,4.107-6.058,6.185,1.876,.899,3.746,1.813,5.611,2.738,25.028,12.404,49.187,26.673,72.194,42.622l5.186-6.39c-.157-.112-.317-.224-.474-.332Z" fill="#8e262a"/>
  </g>
  <path d="M888.266,327.377h-147.911c-106.496-135.24-272.145-222.075-457.64-222.075C181.524,105.302,82.999,133.104,.117,178.554c103.672-63.886,229.146-102.704,359.862-102.704,213.209,0,403.519,98.053,528.288,251.527Z" fill="#e0e0e0"/>
  <g>
    <path d="M6.278,393.035H71.999l-6.244,12.851c-.707-1.493-2.028-2.505-3.546-2.505h-17.369l-26.742,54.623H1.103l26.739-54.636H6.232c-2.01,0-4.434,1.14-6.232,2.517l6.278-12.851Z" fill="#00685e" fill-rule="evenodd"/>
    <path d="M201.489,445.577l-6.082,12.427h-63.511l29.581-60.53c.313-.707,.507-1.515,.507-2.372,0-.802-.16-1.555-.443-2.222h56.636l-6.263,12.805c-.701-1.493-2.031-2.505-3.559-2.505h-32.639l-7.584,15.534h33.001l-6.251,12.799c-.698-1.493-2.031-2.492-3.552-2.492h-28.232l-9.145,18.687,41.044,.012c1.638,0,5.181-.894,6.49-2.145" fill="#00685e" fill-rule="evenodd"/>
    <path d="M515.12,445.577l-6.079,12.427h-48.231l29.584-60.53c.317-.707,.507-1.515,.507-2.372,0-.802-.16-1.555-.433-2.222h19.102l-26.692,54.829,25.764,.012c1.638,0,5.181-.894,6.478-2.145" fill="#00685e" fill-rule="evenodd"/>
    <path d="M135.254,408.265c0-15.414-12.449-15.242-19.013-15.242l-33.966,.003c.28,.667,.409,1.429,.409,2.234,0,.864-.181,1.675-.513,2.385l-29.443,60.361h16.982l13.116-26.889h17.765l5.387,26.889h18.254c-1.1-.658-2.551-2.32-3.079-4.711l-4.954-22.356c5.654-.793,19.056-8.872,19.056-22.673m-31.52,12.581h-15.894l8.586-17.498h16.932c3.986,0,5.593,2.901,5.593,4.917,0,6.773-6.155,12.581-15.218,12.581" fill="#00685e" fill-rule="evenodd"/>
    <path d="M317.029,392.903c.28,.673,.442,1.429,.442,2.24,0,.864-.187,1.675-.513,2.391l-29.538,60.471h17.037l31.828-65.102h-19.256Z" fill="#00685e" fill-rule="evenodd"/>
    <path d="M546.655,392.903c.286,.673,.446,1.429,.446,2.24,0,.864-.181,1.675-.51,2.391l-29.535,60.471h17.034l31.831-65.102h-19.265Z" fill="#00685e" fill-rule="evenodd"/>
    <path d="M348.326,393.035h65.723l-6.248,12.851c-.698-1.493-2.025-2.505-3.54-2.505l-17.372-.012-26.748,54.636h-16.985l26.739-54.636h-21.61c-2.016,0-4.437,1.14-6.235,2.517l6.275-12.851Z" fill="#00685e" fill-rule="evenodd"/>
    <path d="M450.254,393.106l-17.544,.009c0,1.586-.578,3.402-2.157,5.249l-51.695,59.752h14.883l12.252-14.797h31.689l.32,14.797h15.602l-3.35-65.01Zm-35.518,39.639l22.194-26.674,.525,26.674h-22.719Z" fill="#00685e" fill-rule="evenodd"/>
    <path d="M613.242,392.905l-17.596,.003c0,1.595-.575,3.417-2.157,5.267l-51.864,59.94h14.923l12.301-14.852h31.778l.323,14.852h15.642l-3.35-65.21Zm-35.617,39.759l22.24-26.76,.538,26.76h-22.777Z" fill="#00685e" fill-rule="evenodd"/>
    <path d="M233.084,401.99l2.102-4.296c.347-.707,.538-1.512,.538-2.375,0-.79-.166-1.533-.461-2.197h16.926l15.872,45.183,19.827-40.61c.347-.707,.541-1.512,.541-2.375,0-.79-.166-1.533-.467-2.203h13.964l-31.754,65.032h-12.182l-16.908-48.379-23.595,48.379h-11.822l27.418-56.157Z" fill="#00685e" fill-rule="evenodd"/>
    <path d="M845.702,445.856l-6.045,12.412h-63.099l29.406-60.398c.326-.704,.501-1.512,.501-2.372,0-.796-.151-1.549-.427-2.213h56.261l-6.22,12.775c-.701-1.49-2.016-2.498-3.531-2.498l-32.424-.003-7.55,15.503,32.799-.006-6.226,12.775c-.691-1.49-2.016-2.498-3.531-2.498l-28.045,.009-9.09,18.647,40.773,.006c1.629,0,5.15-.891,6.447-2.139" fill="#00685e"/>
    <path d="M912.989,408.491c0-2.022-1.598-4.926-5.565-4.926h-16.877l-8.568,17.51,15.838-.003c9.035,0,15.165-5.814,15.172-12.581m-66.015,49.777l29.372-60.407c.326-.71,.507-1.521,.507-2.388,0-.802-.126-1.564-.412-2.237l33.85-.003c6.536,0,18.955-.175,18.952,15.258-.006,13.807-13.371,21.895-19.007,22.691l4.929,22.363c.522,2.385,1.967,4.056,3.064,4.723h-18.186l-5.366-26.917h-17.698l-13.082,26.917h-16.933" fill="#00685e"/>
    <path d="M770.971,410.529c.003-5.313-4.241-6.81-8.644-6.81h-11.253l-11.484,23.586,12.289-.003c14.339,0,19.093-9.957,19.093-16.773m-17.326,27.242h-19.164l-9.951,20.497h-16.791l29.004-59.599c.381-.784,.596-1.693,.599-2.667-.003-1.014-.234-1.958-.645-2.812h33.379c8.079,.049,16.886,4.37,16.883,16.813-.009,15.682-11.797,27.768-33.315,27.768" fill="#00685e"/>
    <path d="M661.018,392.999l65.772-.003-6.244,12.894c-.704-1.493-2.028-2.505-3.552-2.505l-17.384-.003-26.76,54.884h-17.006l26.754-54.884h-21.622c-2.016,0-4.434,1.137-6.238,2.508l6.281-12.891Z" fill="#00685e"/>
  </g>
</svg>