<?xml version="1.0" encoding="UTF-8" standalone="no"?>
<!-- Created with Inkscape (http://www.inkscape.org/) -->

<svg
   xmlns:dc="http://purl.org/dc/elements/1.1/"
   xmlns:cc="http://creativecommons.org/ns#"
   xmlns:rdf="http://www.w3.org/1999/02/22-rdf-syntax-ns#"
   xmlns:svg="http://www.w3.org/2000/svg"
   xmlns="http://www.w3.org/2000/svg"
   version="1.1"
   width="892.91339"
   height="90"
   id="svg6986">
  <defs
     id="defs6988">
    <clipPath
       id="clipPath6932">
      <path
         d="m 285.907,516.328 232.298,0 0,-31.603 -232.298,0 0,31.603 z"
         id="path6934" />
    </clipPath>
  </defs>
  <metadata
     id="metadata6991">
    <rdf:RDF>
      <cc:Work
         rdf:about="">
        <dc:format>image/svg+xml</dc:format>
        <dc:type
           rdf:resource="http://purl.org/dc/dcmitype/StillImage" />
        <dc:title></dc:title>
      </cc:Work>
    </rdf:RDF>
  </metadata>
  <g
     transform="translate(36.61493,-398.80169)"
     id="layer1">
    <g
       transform="matrix(3.0506573,0,0,3.0506573,-758.12372,-1040.7943)"
       id="g7023">
      <path
         d="m 268.94858,473.0654 -21.62625,0 c -0.59875,0 -1.21625,0.115 -1.80375,0.365 -1.4325,0.62125 -2.45375,1.86125 -2.885,3.295 l -0.025,0.1025 c 14.16875,4.855 18.32,16.0225 18.35875,19.35375 l 0,0.23375 c -0.0113,1.35375 -0.945,2.99875 -2.46625,3.815 l 4.88375,0 c 0.61375,0 1.22875,-0.12 1.805,-0.3675 1.43125,-0.62625 2.4575,-1.86 2.89,-3.3 l 4.8225,-17.95 c 0.10125,-0.3725 0.1525,-0.73875 0.1625,-1.16 0.0288,-2.41 -1.8,-4.3875 -4.11625,-4.3875"
         id="path6916"
         style="fill:#006b3b;fill-opacity:1;fill-rule:nonzero;stroke:none" />
      <path
         d="m 258.55108,495.08165 c 0.04,-3.8575 -4.64125,-7.95875 -6.95625,-10.08 -0.42125,-0.335 -0.79,-0.63 -1.085,-0.83 -0.50125,0.57625 -3.78625,1.31375 -9.8525,0.005 l -0.0263,0.075 -2.95125,11.01 c 0,0.009 -0.009,0.009 -0.009,0.009 6.415,3.85875 20.83,6.02 20.88,-0.18875"
         id="path6918"
         style="fill:#d91920;fill-opacity:1;fill-rule:nonzero;stroke:none" />
      <path
         d="m 446.88858,486.65915 c -1.45,5.4 -4.535,8.63375 -11.05875,8.63375 -0.045,0 -4.495,0 -4.56125,-0.005 -6.40125,-0.0263 -8.00125,-3.30625 -6.56625,-8.62875 1.4375,-5.34375 4.5,-8.585 10.9675,-8.62375 l 4.5125,0 c 6.51,0 8.1425,3.23875 6.70625,8.62375 m 36.90375,-13.56375 -46.81125,0 c -9.84875,0.1 -15.97875,4.66125 -18.3825,13.59875 -2.4175,8.98375 1.32,13.45125 11.16375,13.52125 l 4.59125,0 c 10.0375,-0.0312 16.25125,-4.50625 18.68125,-13.55625 0.87375,-3.28375 0.56625,-6.52875 -0.205,-8.62375 l 30.75625,0.0337 c 1.45125,0 2.3525,0.66125 1.59625,3.3325 -0.71125,2.5425 -1.6725,2.815 -3.1325,2.815 l -23.49375,0 -1.24375,4.85875 19.09375,11.1225 8.6525,0 0.3125,-1.19875 -17.06875,-9.88375 12.55375,0.0175 c 5.975,0 7.55375,-1.33 9.03625,-6.72375 l 0.5575,-2.2025 c 1.27125,-4.705 -1.5025,-7.11125 -6.6575,-7.11125"
         id="path6920"
         style="fill:#006b3b;fill-opacity:1;fill-rule:nonzero;stroke:none" />
      <path
         d="m 343.51733,500.1979 30.78,0 1.36375,-4.905 -30.85,0 -1.29375,4.905"
         id="path6922"
         style="fill:#006b3b;fill-opacity:1;fill-rule:nonzero;stroke:none" />
      <path
         d="m 337.26608,473.0954 -57.96,0 -1.30125,4.93875 18.4625,0 -5.9325,22.16375 6.14125,0 5.9375,-22.16375 34.4475,0.035 c 1.46,0 2.38875,0.66 1.63125,3.3325 -0.71375,2.5425 -1.75,2.815 -3.20625,2.815 l -23.4125,0 -1.25375,4.85875 19.10375,11.1225 8.64625,0 0.31875,-1.19875 -17.07125,-9.88375 12.49375,0.0175 c 5.97375,0 7.545,-1.33 9.03125,-6.72375 l 0.59,-2.2025 c 1.26125,-4.705 -1.51625,-7.11125 -6.66625,-7.11125"
         id="path6924"
         style="fill:#006b3b;fill-opacity:1;fill-rule:nonzero;stroke:none" />
      <path
         d="m 346.47108,489.10165 30.83,0 1.31875,-4.925 -30.80375,0 -1.345,4.925"
         id="path6926"
         style="fill:#006b3b;fill-opacity:1;fill-rule:nonzero;stroke:none" />
      <g
         transform="matrix(1.25,0,0,-1.25,-119.71267,1118.4754)"
         id="g6928">
        <g
           clip-path="url(#clipPath6932)"
           id="g6930">
          <path
             d="m 418.728,516.304 -42.302,0 -1.083,-3.921 28.616,0 -4.781,-17.761 4.912,0 4.778,17.761 7.839,0 c 4.918,0 6.383,-2.011 5.213,-6.48 l -3.026,-11.281 4.879,0 2.998,11.235 c 1.534,5.51 -2.021,10.447 -8.043,10.447"
             id="path6936"
             style="fill:#006b3b;fill-opacity:1;fill-rule:nonzero;stroke:none" />
          <path
             d="m 506.988,514.276 c -3.522,1.394 -7.484,2.021 -10.946,2.021 l -2.415,0 -5.83,-21.664 29.551,0 c 0,0 0.901,2.88 0.855,5.57 -0.047,2.491 -0.769,4.925 -2.293,7.204 -2.005,2.986 -5.011,5.301 -8.922,6.869 m 6.479,-15.726 -19.669,0 3.719,13.813 c 2.987,0 5.652,-0.566 8.06,-1.55 3.41,-1.391 5.541,-3.53 6.808,-5.811 1.631,-2.912 1.12,-6.163 1.082,-6.452"
             id="path6938"
             style="fill:#006b3b;fill-opacity:1;fill-rule:nonzero;stroke:none" />
        </g>
      </g>
    </g>
  </g>
</svg>
