<?xml version="1.0" encoding="UTF-8" standalone="no"?>
<svg
   xmlns:dc="http://purl.org/dc/elements/1.1/"
   xmlns:cc="http://creativecommons.org/ns#"
   xmlns:rdf="http://www.w3.org/1999/02/22-rdf-syntax-ns#"
   xmlns:svg="http://www.w3.org/2000/svg"
   xmlns="http://www.w3.org/2000/svg"
   xmlns:sodipodi="http://sodipodi.sourceforge.net/DTD/sodipodi-0.dtd"
   xmlns:inkscape="http://www.inkscape.org/namespaces/inkscape"
   inkscape:version="1.0 (4035a4f, 2020-05-01)"
   sodipodi:docname="Trenitalia_logo.svg"
   xml:space="preserve"
   style="enable-background:new 0 0 2243.9 715.1;"
   viewBox="0 0 2243.9 715.1"
   y="0px"
   x="0px"
   id="Livello_1"
   version="1.1"><metadata
   id="metadata3852"><rdf:RDF><cc:Work
       rdf:about=""><dc:format>image/svg+xml</dc:format><dc:type
         rdf:resource="http://purl.org/dc/dcmitype/StillImage" /><dc:title></dc:title></cc:Work></rdf:RDF></metadata><defs
   id="defs3850" /><sodipodi:namedview
   inkscape:current-layer="Livello_1"
   inkscape:window-maximized="1"
   inkscape:window-y="25"
   inkscape:window-x="0"
   inkscape:cy="1046.038"
   inkscape:cx="1056.7099"
   inkscape:zoom="0.23310574"
   showgrid="false"
   id="namedview3848"
   inkscape:window-height="793"
   inkscape:window-width="1440"
   inkscape:pageshadow="2"
   inkscape:pageopacity="0"
   guidetolerance="10"
   gridtolerance="10"
   objecttolerance="10"
   borderopacity="1"
   bordercolor="#666666"
   pagecolor="#ffffff" />
<style
   id="style3831"
   type="text/css">
	.st0{fill:#006A65;}
	.st1{fill:#006C67;}
	.st2{fill:#E31936;}
</style>
<g
   style="fill:#006a6a;fill-opacity:1"
   id="g3845">
	<path
   style="fill:#006a6a;fill-opacity:1"
   id="path3833"
   d="M719.5,388.1H883l-15.7,32.3c-1.6-3.5-4.9-5.8-8.7-6.1h-43.7l-66.4,136.4h-42.8L772,414.3h-54.2   c-5.8,0.3-11.3,2.5-15.7,6.1L719.5,388.1z M1206.4,519.2l-14.9,31.5h-158.2l74.3-151.2c0.8-1.9,1.1-4,0.9-6.1   c0.1-1.8-0.2-3.6-0.9-5.2h141.7l-16.6,31.5c-1.6-3.5-4.9-5.8-8.7-6.1h-81.3l-19.3,38.5h82.2l-15.7,32.3c-1.6-3.5-4.9-5.8-8.7-6.1   h-70.8l-22.7,46.3h102.2C1195.7,524.6,1201.6,522.8,1206.4,519.2L1206.4,519.2z M1989.6,519.2l-14.8,31.5h-120.6l74.3-151.2   c0.8-1.9,1.1-4,0.9-6.1c0.1-1.8-0.2-3.6-0.9-5.2h48.1l-67.3,136.4h64.7C1979.6,524.5,1985.1,522.6,1989.6,519.2L1989.6,519.2z    M834.9,550.7l73.4-150.3c0.8-1.9,1.1-4,0.9-6.1c0.1-1.8-0.2-3.6-0.9-5.2h84.8c16.6,0,47.2,0,47.2,38.5   c-1.7,27.2-20.8,50.2-47.2,56.8l12.2,55.9c0.9,4.7,3.8,8.8,7.9,11.4h-45.5l-13.1-67.3h-44.6l-32.3,67.3h-42.8   C834.9,551.6,834.9,550.7,834.9,550.7z M1001,426.6c-0.4-7.1-6.4-12.6-13.6-12.3c-0.1,0-0.3,0-0.4,0h-42.8L922.3,458h39.3   C985.2,458,1001,443.2,1001,426.6L1001,426.6z M1494.8,388.1c0.7,1.7,1,3.5,0.9,5.2c0,1.7-0.9,4.4-0.9,6.1l-73.4,151.2h42.8   l79.5-162.6H1494.8z M2068.3,388.1c0.7,1.7,1,3.5,0.9,5.2c0,1.7-0.9,4.4-0.9,6.1l-73.4,151.2h42.8l79.5-162.6H2068.3z    M1573.5,388.1h164.3l-15.7,32.3c-1.6-3.5-4.9-5.8-8.7-6.1h-43.7l-66.4,136.4h-42.8l66.4-136.4h-53.3c-5.8,0.3-11.3,2.5-15.7,6.1   L1573.5,388.1L1573.5,388.1z M1784.2,388.1c-0.2,4.8-2,9.5-5.2,13.1l-129.4,149.5h37.6l30.6-36.7h79.5l0.9,36.7h39.3l-8.7-162.6   L1784.2,388.1z M1739.6,487.8l55.1-66.4l1.7,66.4H1739.6z M2190.6,388.1c-0.2,4.8-2,9.5-5.2,13.1L2056,550.7h37.6l30.6-36.7h79.5   l0.9,36.7h39.3l-8.7-162.6H2190.6z M2146.1,487.8l55.9-66.4l1.7,66.4H2146.1z M1285.9,410.8l5.2-10.5c1.1-1.9,1.7-4,1.7-6.1   c0.1-1.8-0.2-3.6-0.9-5.2h42l39.3,112.8l49.9-101.4c1.1-1.9,1.7-4,1.7-6.1c0.1-1.8-0.2-3.6-0.9-5.2h34.9l-80.4,161.7H1348   l-42-120.6l-59.4,120.6h-29.7L1285.9,410.8z"
   class="st0" />
	<path
   style="fill:#006a6a;fill-opacity:1"
   id="path3835"
   d="M83.1,668.7L83.1,668.7L42,667.8v14.9h21.9c-0.6,2.8-1.8,5.5-3.5,7.9c-4.5,5.5-11.3,8.4-18.4,7.9   c-14.7-0.7-26.1-13.2-25.4-27.9c0.7-13.7,11.6-24.7,25.4-25.4c4.4-0.2,8.6,1,12.2,3.5c3.3,1.8,6.3,4.1,8.7,7l14.9-8.7   c-2.2-3.8-5.2-7-8.7-9.6c-7.7-6.1-17.3-9.2-27.1-8.7c-23.1-0.1-41.9,18.6-42,41.7c0,0.7,0,1.3,0,2c-1.6,22,14.8,41.1,36.8,42.7   c1.4,0.1,2.9,0.1,4.3,0.1c15.2,0.6,29.5-7.5,36.7-21C81.7,686.1,83.5,677.4,83.1,668.7L83.1,668.7z M2243.1,646.8v-15.7h-46.3v82.1   h46.3v-16.6h-28.8v-17.5h28v-15.8h-28v-16.5H2243.1z M1933.6,713.3l-33.2-82.2h-19.2l-32.3,82.2h19.2l6.1-16.6h34.1l6.1,16.6   H1933.6z M1902.2,680.9h-22.7l11.4-32.3L1902.2,680.9L1902.2,680.9z M1986.9,713.3v-15.7h-28V632h-17.5v82.2h45.5L1986.9,713.3z    M2014,713.3v-82.1h-17.5v82.1H2014z M2105.8,713.3l-33.2-82.2h-19.2l-32.3,82.2h19.2l6.1-16.6h34.1l6.1,16.6H2105.8z    M2073.5,680.9h-22.8l11.4-32.3L2073.5,680.9L2073.5,680.9z M2182.8,713.3v-82.1h-16.6v54.2l-38.5-54.2H2112v82.1h16.6l-0.9-55.1   l38.5,55.1H2182.8z M1853.2,646.8v-15.7h-52.4v15.7h17.5v65.6h17.5v-65.5L1853.2,646.8z M1731.7,672.2c0.4-23.2-18-42.4-41.2-42.8   c-0.8,0-1.7,0-2.5,0c-23.7,0.2-42.6,19.6-42.4,43.3c0.2,23.7,19.6,42.6,43.3,42.4c22.5,1.1,41.7-16.2,42.8-38.7   C1731.7,674.9,1731.7,673.6,1731.7,672.2L1731.7,672.2z M1713.3,672.2c0.7,13.8-9.9,25.5-23.6,26.2c-0.3,0-0.5,0-0.8,0   c-14.5,0.2-26.4-11.3-26.7-25.8s11.3-26.4,25.8-26.7c13.8-0.2,25.2,10.9,25.4,24.7C1713.4,671.1,1713.4,671.6,1713.3,672.2   L1713.3,672.2z M1792,713.3v-82.2h-17.5v82.1L1792,713.3z M1642.5,646.9v-15.8h-52.4v15.7h17.5v65.6h17.5v-65.5L1642.5,646.9z    M1593.6,713.3l-33.2-82.2h-19.2l-32.3,82.2h19.2l6.1-16.6h34.1l6.1,16.6H1593.6z M1562.1,680.9h-22.7l11.4-32.3L1562.1,680.9   L1562.1,680.9z M1513.2,646.8v-15.7h-52.4v15.7h17.5v65.6h17.5v-65.5L1513.2,646.8z M1362.8,672.2c0.5-23.2-18-42.4-41.2-42.9   c-0.8,0-1.7,0-2.5,0c-23.7,0.5-42.4,20-42,43.7c0.5,23.7,20,42.4,43.7,42C1344.2,714.5,1362.8,695.5,1362.8,672.2z M1344.5,672.2   c0.7,13.8-9.9,25.5-23.6,26.2c-0.3,0-0.5,0-0.8,0c-14.5,0.2-26.4-11.3-26.7-25.8c-0.2-14.5,11.3-26.4,25.8-26.7   c13.8-0.2,25.2,10.9,25.4,24.7C1344.5,671.1,1344.5,671.6,1344.5,672.2L1344.5,672.2z M1455.5,687.9c0-25.4-33.2-22.7-33.2-35.8   c0.1-3.9,3.3-7.1,7.3-7c0.2,0,0.4,0,0.6,0c5.1,0.5,9.6,3.4,12.2,7.9l11.4-13.1c-5.8-7.1-14.4-11.3-23.6-11.4   c-13.3-1.1-25,8.8-26.1,22c0,0.5-0.1,1-0.1,1.5c0,14,11.4,21,21.9,26.2c2.6,0.9,5,2.4,7,4.4c2,1.8,3.2,4.3,3.5,7   c0.1,5.2-4,9.5-9.2,9.7c-0.4,0-0.9,0-1.3-0.1c-6.5-0.5-12.3-4.1-15.7-9.6l-11.4,13.1c6.8,7.2,16.3,11.3,26.2,11.4   c14.3,2.4,27.8-7.1,30.2-21.4C1455.4,691.1,1455.5,689.5,1455.5,687.9z M1271,713.3v-15.7h-27.9V632h-17.5v82.2h45.5L1271,713.3z    M1100.6,671.3c0.1-7.7-2-15.3-6.1-21.9c-9.6-16.6-26.2-17.5-42.8-17.5h-16.6v82.2h19.2c11.1,0.9,22.1-1.8,31.5-7.9   C1095.2,697.1,1100.5,684.6,1100.6,671.3L1100.6,671.3z M1083.2,671.3c1.8,13.1-7.4,25.2-20.5,26.9c-1.6,0.2-3.2,0.3-4.8,0.2h-5.2   v-53.3h2.6c6.8-0.6,13.6,1.3,19.2,5.2C1080.3,655.7,1083.4,663.4,1083.2,671.3L1083.2,671.3z M1158.3,646.8v-15.7H1112v82.1h46.3   v-16.6h-28.8v-17.5h27.9v-15.8h-27.9v-16.5H1158.3z M1216,713.3v-15.7h-28V632h-17.5v82.2h45.5L1216,713.3z M987.9,646.8v-15.7   h-46.3v82.1h46.3v-16.6H959v-17.5h28v-15.8h-28v-16.5L987.9,646.8z M924.9,713.3v-82.1h-17.5v82.1H924.9z M900.4,631.1h-19.2   l-20.1,58.6L841,631.1h-19.2l30.6,82.1h17.5L900.4,631.1L900.4,631.1z M819.2,672.2c0.5-23.2-17.9-42.4-41.1-42.9   c-0.8,0-1.7,0-2.5,0c-23.7,0.2-42.6,19.6-42.4,43.3c0.2,23.7,19.6,42.6,43.3,42.4c22.5,1.1,41.7-16.3,42.8-38.8   C819.2,674.9,819.2,673.5,819.2,672.2L819.2,672.2z M800.8,672.2c0.7,13.8-9.9,25.5-23.6,26.2c-0.3,0-0.5,0-0.8,0   c-14.5,0.2-26.4-11.3-26.7-25.8c-0.2-14.5,11.3-26.4,25.8-26.7c13.8-0.2,25.2,10.9,25.4,24.7c0,0.5,0,1,0,1.5L800.8,672.2z    M357.6,656.5c0.3-5.3-1.2-10.6-4.4-14.9c-5.4-6.5-13.4-10.3-21.9-10.5h-28.8v82.1H320v-31.5h8.7c7.8,0.7,15.6-1.5,21.9-6.1   C355.1,670.3,357.5,663.5,357.6,656.5L357.6,656.5z M340.2,656.5c0,7.9-5.2,10.5-12.2,10.5h-7.9v-21h7c1.8-0.1,3.6,0.2,5.2,0.9   c4.8,0.4,8.3,4.7,7.9,9.5C340.2,656.3,340.2,656.4,340.2,656.5L340.2,656.5z M447.6,672.2c0.5-23.2-18-42.4-41.2-42.9   c-0.8,0-1.6,0-2.4,0c-23.7,0.2-42.6,19.6-42.4,43.3c0.2,23.7,19.6,42.6,43.3,42.4c22.5,1.1,41.7-16.3,42.8-38.8   C447.7,674.9,447.7,673.5,447.6,672.2z M429.3,672.2c0.7,13.8-9.9,25.5-23.6,26.2c-0.3,0-0.5,0-0.8,0   c-14.5,0.2-26.4-11.3-26.6-25.8c-0.2-14.5,11.3-26.4,25.8-26.6l0,0c13.8-0.2,25.2,10.9,25.4,24.7   C429.4,671.1,429.4,671.6,429.3,672.2L429.3,672.2z M538.5,678.3v-15.7h-29.7v-15.7h29.7v-15.7h-47.2v82.1h17.5v-34.1h29.7V678.3z    M592.7,646.8v-15.7h-46.3v82.1h46.3v-16.6h-28.8v-17.5h28v-15.8h-28v-16.5L592.7,646.8z M664.4,713.3l-23.5-34.9   c3.1-0.6,6.1-1.8,8.7-3.5c6-4.6,9.6-11.7,9.6-19.2c0.1-4.9-1.1-9.7-3.5-14c-6.8-8.2-17.5-12.2-28-10.5H605v82.1h17.5v-34.9   l21.9,34.9L664.4,713.3z M641.7,656.5c-0.2,2.1-0.8,4.2-1.7,6.1c-2.8,3.9-7.5,6-12.2,5.2h-6.1v-21.9h6.1   C634.7,645.1,641.7,647.7,641.7,656.5L641.7,656.5z M729.1,713.3l-23.6-34.9c3.1-0.6,6.1-1.8,8.7-3.5c6-4.6,9.6-11.7,9.6-19.2   c0.1-4.9-1.1-9.7-3.5-14c-6.8-8.2-17.5-12.2-28-10.5h-22.7v82.1h17.5v-34.9l21.9,34.9L729.1,713.3z M706.4,656.4   c-0.2,2.1-0.8,4.2-1.7,6.1c-2.8,3.9-7.5,6-12.2,5.2h-6.1v-21.9h6.1C699.4,645.1,706.4,647.7,706.4,656.4L706.4,656.4z M294.7,656.4   c0.3-5.3-1.2-10.6-4.4-14.9c-5.4-6.5-13.4-10.3-21.9-10.5h-28.8v82.2h17.5v-31.5h8.7c7.8,0.7,15.6-1.5,21.9-6.1   C292.1,670.3,294.6,663.5,294.7,656.4L294.7,656.4z M277.2,656.4c0,7.9-5.2,10.5-12.2,10.5h-7.9v-21h7c1.8-0.1,3.6,0.2,5.2,0.9   C274,647.6,277.4,651.7,277.2,656.4L277.2,656.4z M154,713.3l-23.6-34.9c3.1-0.6,6.1-1.8,8.7-3.5c6-4.6,9.6-11.7,9.6-19.2   c0.1-4.9-1.1-9.7-3.5-14c-6.8-8.2-17.4-12.2-27.9-10.5H94.5v82.1H112v-34.9l21.9,34.9L154,713.3z M131.2,656.4   c-0.2,2.1-0.8,4.2-1.7,6.1c-2.8,3.9-7.5,6-12.2,5.2h-6.1v-21.9h6.2C125.2,645.1,131.3,647.7,131.2,656.4L131.2,656.4z M225.6,676.5   v-45.4h-17.5v50.7c0,10.5-4.4,16.6-14.9,16.6c-5.1,0.4-10.1-1.9-13.1-6.1c-2.3-3.6-3.2-8-2.6-12.2v-50.7h-17.5v50.7   c-0.5,5.1,0.4,10.2,2.6,14.9c5.5,11.8,17.6,19,30.6,18.3c10.5,0.6,20.6-4,27.1-12.2C224.5,693.5,226.3,685,225.6,676.5L225.6,676.5   z"
   class="st0" />
	<path
   style="fill:#006a6a;fill-opacity:1"
   id="path3837"
   d="M320.9,244.8l-176.6,17.5l-118.9,236c94.4,0,142.5-8.7,197.5-87.4C258.9,357.5,291.6,302,320.9,244.8z"
   class="st1" />
	<path
   style="fill:#006a6a;fill-opacity:1"
   id="path3839"
   d="M799,26.2L813,0H440.7C314.8,0,250.1,42.8,210.8,121.5l-30.6,62.1h169.5C409.2,68.2,482.6,28.8,661.8,26.2H799   z"
   class="st1" />
	<path
   style="fill:#006a6a;fill-opacity:1"
   id="path3841"
   d="M787.7,51.6c-227.3,1.7-264.9,39.3-315.6,132H723L787.7,51.6z"
   class="st1" />
	<path
   style="fill:#d61d29;fill-opacity:1"
   id="path3843"
   d="M547.4,376.7c-14.8,83.9-80.5,149.5-164.4,164.3c-27.4,4.8-55.2,7.7-83,8.7c-33.2,0.9-299.8,0.9-299.8,0.9   l11.4-23.6c0,0,101.4-0.9,115.4-0.9c33-0.5,66-2.9,98.8-7c69.6-5.9,128-54.8,145.9-122.4l20.1-68.2c11.4-57.7,61.8-99.4,120.6-99.7   l194.1-12.2l-9.6,19.2l-59.4,3.5c-44.4,3.4-80,37.9-84.8,82.2L547.4,376.7z"
   class="st2" />
</g>
</svg>
